<svg width="49" height="48" viewBox="0 0 49 48" fill="none" xmlns="http://www.w3.org/2000/svg">
<path d="M40 32.1875C40.9375 34.0625 42.3125 35.5625 42.3125 35.5625C42.75 36 42.8125 36.625 42.625 37.125C42.375 37.6875 41.875 38 41.3125 38C37.9375 38 35.25 36.75 33.4375 35.625C32.25 35.875 31 36 29.75 36C24.3125 36 19.75 33.5 17.75 29.9375C17.1875 29.8125 16.5625 29.75 16 29.625C14.1875 30.75 11.5 32.0625 8.1875 32.0625C7.5625 32.0625 7.0625 31.6875 6.8125 31.1875C6.625 30.625 6.75 30 7.125 29.625C7.125 29.5625 8.5 28.0625 9.5 26.1875C7.75 24.4375 6.75 22.3125 6.75 20C6.75 14.5 12.5625 10 19.75 10C25.125 10 29.75 12.5625 31.6875 16.1875C37.9375 16.875 42.75 21 42.75 26C42.75 28.375 41.6875 30.5 40 32.1875ZM15.4375 26.375L16.6875 26.6875C17.6875 26.9375 18.6875 27 19.75 27C25.125 27 29.75 23.8125 29.75 20C29.75 16.25 25.125 13 19.75 13C14.3125 13 9.75 16.25 9.75 20C9.75 21.8125 10.75 23.1875 11.5625 24L13.125 25.5625L12.1875 27.5C12 27.8125 11.8125 28.125 11.6875 28.4375C12.5625 28.125 13.5 27.6875 14.375 27.0625L15.4375 26.375ZM37.875 30C38.6875 29.1875 39.75 27.8125 39.75 26C39.75 22.9375 36.6875 20.3125 32.6875 19.375C32.6875 19.625 32.75 19.8125 32.75 20C32.75 25.0625 27.875 29.25 21.5 29.9375C23.3125 31.75 26.375 33 29.75 33C30.75 33 31.8125 32.9375 32.8125 32.6875L34 32.375L35.125 33.0625C36 33.625 36.875 34.125 37.8125 34.4375C37.625 34.125 37.4375 33.8125 37.3125 33.5L36.3125 31.5625L37.875 30Z" fill="black" fill-opacity="0.24"/>
</svg>
