<svg width="29" height="32" viewBox="0 0 29 32" fill="none" xmlns="http://www.w3.org/2000/svg">
<path d="M9.5 18H7C6.5625 18 6.25 17.6875 6.25 17.25V14.75C6.25 14.375 6.5625 14 7 14H9.5C9.875 14 10.25 14.375 10.25 14.75V17.25C10.25 17.6875 9.875 18 9.5 18ZM16.25 17.25C16.25 17.6875 15.875 18 15.5 18H13C12.5625 18 12.25 17.6875 12.25 17.25V14.75C12.25 14.375 12.5625 14 13 14H15.5C15.875 14 16.25 14.375 16.25 14.75V17.25ZM22.25 17.25C22.25 17.6875 21.875 18 21.5 18H19C18.5625 18 18.25 17.6875 18.25 17.25V14.75C18.25 14.375 18.5625 14 19 14H21.5C21.875 14 22.25 14.375 22.25 14.75V17.25ZM16.25 23.25C16.25 23.6875 15.875 24 15.5 24H13C12.5625 24 12.25 23.6875 12.25 23.25V20.75C12.25 20.375 12.5625 20 13 20H15.5C15.875 20 16.25 20.375 16.25 20.75V23.25ZM10.25 23.25C10.25 23.6875 9.875 24 9.5 24H7C6.5625 24 6.25 23.6875 6.25 23.25V20.75C6.25 20.375 6.5625 20 7 20H9.5C9.875 20 10.25 20.375 10.25 20.75V23.25ZM22.25 23.25C22.25 23.6875 21.875 24 21.5 24H19C18.5625 24 18.25 23.6875 18.25 23.25V20.75C18.25 20.375 18.5625 20 19 20H21.5C21.875 20 22.25 20.375 22.25 20.75V23.25ZM28.25 7V29C28.25 30.6875 26.875 32 25.25 32H3.25C1.5625 32 0.25 30.6875 0.25 29V7C0.25 5.375 1.5625 4 3.25 4H6.25V0.75C6.25 0.375 6.5625 0 7 0H9.5C9.875 0 10.25 0.375 10.25 0.75V4H18.25V0.75C18.25 0.375 18.5625 0 19 0H21.5C21.875 0 22.25 0.375 22.25 0.75V4H25.25C26.875 4 28.25 5.375 28.25 7ZM25.25 28.625V10H3.25V28.625C3.25 28.875 3.375 29 3.625 29H24.875C25.0625 29 25.25 28.875 25.25 28.625Z" fill="black" fill-opacity="0.24"/>
</svg>
