<svg width="49" height="48" viewBox="0 0 49 48" fill="none" xmlns="http://www.w3.org/2000/svg">
<path d="M8.5 13C8.5 11.375 9.8125 10 11.5 10H37.5C39.125 10 40.5 11.375 40.5 13V35C40.5 36.6875 39.125 38 37.5 38H11.5C9.8125 38 8.5 36.6875 8.5 35V13ZM38 27V21H20.8125V27H38ZM38 29.5H20.8125V35.5H37.25C37.625 35.5 38 35.1875 38 34.75V29.5ZM11 21V27H18.3125V21H11ZM20.8125 18.5H38V13.25C38 12.875 37.625 12.5 37.25 12.5H20.8125V18.5ZM18.3125 12.5H11.75C11.3125 12.5 11 12.875 11 13.25V18.5H18.3125V12.5ZM11 29.5V34.75C11 35.1875 11.3125 35.5 11.75 35.5H18.3125V29.5H11Z" fill="black" fill-opacity="0.24"/>
</svg>
